<svg xmlns="http://www.w3.org/2000/svg" viewBox="0 0 52.08 69.17"><defs><style>.cls-1{fill:#fc3e39;}</style></defs><title>2자산 8</title><g id="레이어_2" data-name="레이어 2"><g id="레이어_1-2" data-name="레이어 1"><path class="cls-1" d="M10.78,44.78a4.09,4.09,0,0,0-.42,3.36l.4,1.27-1.24.48a7.63,7.63,0,0,0-3.84,3.17A7.78,7.78,0,0,0,14.1,64.71,7.76,7.76,0,0,0,20,56.37L19.9,55l1.31-.22A4.07,4.07,0,0,0,24,52.94l7.8-12.67H13.55Z"/><path d="M46.06,1.88A12.66,12.66,0,0,0,28.65,6a12.51,12.51,0,0,0-1.8,7.91A6.77,6.77,0,0,0,19,16.8l-.9,1.46a6.72,6.72,0,0,0-.28,6.55L6.88,42.55a8.35,8.35,0,0,0-1.23,4.39,11.89,11.89,0,0,0-3.87,3.89,12,12,0,0,0,20.5,12.62A11.93,11.93,0,0,0,24,58.25a8.31,8.31,0,0,0,3.36-3.08L38.3,37.43A6.75,6.75,0,0,0,44,34.23l.9-1.46a6.77,6.77,0,0,0-1-8.31A12.64,12.64,0,0,0,46.06,1.88ZM22.55,52.2a2.7,2.7,0,0,1-1.85,1.23l-2.62.44.27,2.64a6.37,6.37,0,1,1-8.6-5.3l2.48-1-.79-2.53a2.72,2.72,0,0,1,.27-2.21L22.09,28.66l10.84,6.68Z"/></g></g></svg>