<?xml version="1.0" encoding="utf-8"?>
<!-- Generator: Adobe Illustrator 22.0.1, SVG Export Plug-In . SVG Version: 6.00 Build 0)  -->
<svg version="1.1" xmlns="http://www.w3.org/2000/svg" xmlns:xlink="http://www.w3.org/1999/xlink" x="0px" y="0px"
	 viewBox="0 0 169.4 90.3" style="enable-background:new 0 0 169.4 90.3;" xml:space="preserve">
<style type="text/css">
	.st0{display:none;}
	.st1{display:inline;}
	.st2{fill:currentColor;}
	.st3{fill:currentColor;}
</style>
<g id="어쩜카운터" class="st0">
	<polygon class="st1" points="163.3,50.9 138.7,44.2 138.7,26.2 134.1,25.7 146.1,7.6 125.4,19.2 126.2,13.4 22.8,13.4 22.8,15.9 
		9.8,9.7 18,22.5 13.6,27.6 13.6,63.4 18.7,63.9 6.1,82.8 21.9,71.9 22.8,75.8 126.3,75.8 128.6,69.2 138.7,76 136,67.2 138.7,66 
		138.7,54.6 152.2,57.1 148.9,80.4 	"/>
</g>
<g id="정복하는" class="st0">
	<g class="st1">
		<g>
			<path class="st2" d="M137.2,44.2V27.6l-3.3-0.4c-0.5-0.1-1-0.4-1.2-0.9s-0.2-1,0.1-1.5l8.6-12.9l-15.3,8.6
				c-0.5,0.3-1.1,0.3-1.6-0.1c-0.5-0.3-0.7-0.9-0.6-1.4l0.5-4H24.3v1c0,0.5-0.3,1-0.7,1.3c-0.4,0.3-1,0.3-1.5,0.1l-8.2-4l5.3,8.3
				c0.4,0.6,0.3,1.3-0.1,1.8l-4,4.7v33.9l3.8,0.4c0.5,0,1,0.4,1.2,0.9c0.2,0.5,0.2,1-0.1,1.5l-8.3,12.3l9.3-6.4
				c0.4-0.3,0.9-0.3,1.4-0.2c0.5,0.2,0.8,0.6,0.9,1.1l0.6,2.8h101.3l2-5.7c0.2-0.4,0.5-0.8,0.9-0.9c0.4-0.1,0.9-0.1,1.3,0.2l6.6,4.5
				l-1.4-4.8c-0.2-0.7,0.1-1.5,0.8-1.8l1.8-0.8V54.6c0-0.4,0.2-0.9,0.5-1.2c0.3-0.3,0.8-0.4,1.2-0.3l13.5,2.5
				c0.8,0.1,1.3,0.9,1.2,1.7l-1.9,14l9.5-19.4l-22.9-6.2C137.6,45.5,137.2,44.9,137.2,44.2z"/>
			<path class="st2" d="M9.8,79l9.7-14.5c0.2-0.3,0.2-0.7,0.1-1c-0.1-0.3-0.5-0.5-0.8-0.6l-4.2-0.4V28l4.2-4.8
				c0.3-0.3,0.3-0.8,0.1-1.2l-6.3-9.8l9.8,4.7c0.3,0.2,0.7,0.1,1-0.1c0.3-0.2,0.5-0.5,0.5-0.8v-1.5H125l-0.6,4.6
				c0,0.4,0.1,0.7,0.4,1c0.3,0.2,0.7,0.2,1.1,0l17.1-9.6l-9.8,14.7c-0.2,0.3-0.2,0.7-0.1,1c0.1,0.3,0.4,0.5,0.8,0.6l3.7,0.5v17.1
				c0,0.5,0.3,0.8,0.7,1l23.5,6.3l-11.1,22.8l2.4-17.1c0.1-0.5-0.3-1-0.8-1.1l-13.5-2.5c-0.3-0.1-0.6,0-0.8,0.2
				c-0.2,0.2-0.4,0.5-0.4,0.8v10.8l-2.1,0.9c-0.5,0.2-0.7,0.7-0.6,1.2l1.8,6.1l-7.7-5.3c-0.3-0.2-0.6-0.2-0.9-0.1
				c-0.3,0.1-0.5,0.3-0.6,0.6l-2.1,6h-102l-0.7-3.2c-0.1-0.3-0.3-0.6-0.6-0.7c-0.3-0.1-0.7-0.1-0.9,0.1L9.8,79z M15.6,61.6l3.3,0.3
				c0.7,0.1,1.3,0.5,1.6,1.1c0.3,0.6,0.2,1.4-0.1,2l-6.8,10.1l7.1-4.9c0.5-0.4,1.2-0.5,1.9-0.2c0.6,0.2,1.1,0.8,1.2,1.4l0.6,2.4
				h100.5l1.9-5.3c0.2-0.6,0.7-1,1.3-1.2c0.6-0.2,1.2-0.1,1.8,0.3l5.4,3.7l-1-3.4c-0.3-1,0.2-2,1.1-2.4l1.5-0.6V54.6
				c0-0.6,0.3-1.2,0.7-1.5c0.5-0.4,1.1-0.5,1.6-0.4l13.5,2.5c1.1,0.2,1.8,1.2,1.6,2.2l-1.5,10.9l7.8-16l-22.3-6
				c-0.9-0.2-1.5-1-1.5-1.9V28l-2.9-0.4c-0.7-0.1-1.3-0.5-1.6-1.2c-0.3-0.6-0.2-1.4,0.2-1.9l7.5-11.2l-13.5,7.6
				c-0.7,0.4-1.5,0.3-2.1-0.1c-0.6-0.4-1-1.2-0.9-1.9l0.5-3.5H24.8v0.5c0,0.7-0.4,1.3-0.9,1.7s-1.3,0.4-1.9,0.1l-6.6-3.2l4.4,6.8
				c0.5,0.8,0.4,1.7-0.2,2.4l-3.9,4.5V61.6z"/>
		</g>
		<path class="st3" d="M164.7,50.2c-0.2-0.4-0.5-0.7-1-0.8L140.2,43V26.2c0-0.8-0.6-1.4-1.3-1.5l-2.2-0.3l10.7-16.1
			c0.4-0.6,0.3-1.3-0.1-1.9c-0.5-0.5-1.2-0.6-1.8-0.3l-18.1,10.1l0.4-2.8c0.1-0.4-0.1-0.9-0.4-1.2c-0.3-0.3-0.7-0.5-1.1-0.5H22.8
			c-0.8,0-1.5,0.7-1.5,1.5v0.1L10.5,8.3C9.9,8,9.2,8.2,8.7,8.7c-0.4,0.5-0.5,1.2-0.1,1.8l7.6,11.9l-3.7,4.3c-0.2,0.3-0.4,0.6-0.4,1
			v35.8c0,0.8,0.6,1.4,1.4,1.5l2.6,0.2L4.8,81.9c-0.4,0.6-0.3,1.4,0.2,1.9c0.3,0.3,0.7,0.4,1.1,0.4c0.3,0,0.6-0.1,0.9-0.3l14-9.6
			l0.4,1.8c0.2,0.7,0.8,1.2,1.5,1.2h103.5c0.6,0,1.2-0.4,1.4-1l1.7-4.8l8.4,5.8c0.5,0.4,1.2,0.3,1.7,0c0.5-0.4,0.7-1,0.6-1.6
			l-2.3-7.6l1.4-0.6c0.5-0.2,0.9-0.8,0.9-1.4v-9.7l10.3,1.9l-3.1,21.9c-0.1,0.7,0.3,1.4,1,1.6c0.7,0.2,1.5-0.1,1.8-0.8l14.4-29.5
			C164.9,51.1,164.9,50.6,164.7,50.2z M151.7,71.2l1.9-14c0.1-0.8-0.4-1.5-1.2-1.7L139,53.1c-0.4-0.1-0.9,0-1.2,0.3
			c-0.3,0.3-0.5,0.7-0.5,1.2V65l-1.8,0.8c-0.7,0.3-1,1.1-0.8,1.8l1.4,4.8l-6.6-4.5c-0.4-0.3-0.9-0.3-1.3-0.2
			c-0.4,0.1-0.8,0.5-0.9,0.9l-2,5.7H24l-0.6-2.8c-0.1-0.5-0.5-0.9-0.9-1.1c-0.5-0.2-1-0.1-1.4,0.2l-9.3,6.4L20,64.7
			c0.3-0.4,0.3-1,0.1-1.5c-0.2-0.5-0.7-0.8-1.2-0.9l-3.8-0.4V28.2l4-4.7c0.4-0.5,0.5-1.2,0.1-1.8L14,13.3l8.2,4
			c0.5,0.2,1,0.2,1.5-0.1c0.4-0.3,0.7-0.8,0.7-1.3v-1h100.2l-0.5,4c-0.1,0.6,0.2,1.1,0.6,1.4c0.5,0.3,1.1,0.3,1.6,0.1l15.3-8.6
			l-8.6,12.9c-0.3,0.4-0.3,1-0.1,1.5s0.7,0.8,1.2,0.9l3.3,0.4v16.6c0,0.7,0.5,1.3,1.1,1.4l22.9,6.2L151.7,71.2z"/>
	</g>
</g>
<g id="세계를">
	<polygon class="st3" points="167.2,48.7 141.9,41.9 141.9,23.8 138.4,23.3 152.6,2 129,15.2 129.6,10.8 23,10.8 23,12.4 7.5,4.9 
		17.9,21.2 13.9,25.9 13.9,63.6 17.8,64 2.2,87.3 22.6,73.2 23.3,76.2 129.1,76.2 131.2,70.3 143.1,78.5 139.6,66.9 141.9,65.8 
		141.9,55.2 152.2,57.1 147.9,88.3 	"/>
</g>
</svg>
